<?xml version="1.0" encoding="UTF-8"?>
<svg xmlns="http://www.w3.org/2000/svg" xmlns:xlink="http://www.w3.org/1999/xlink" width="133pt" height="132pt" viewBox="0 0 133 132" version="1.1">
<defs>
<clipPath id="clip1">
  <path d="M 0 109 L 132.59375 109 L 132.59375 132 L 0 132 Z M 0 109 "/>
</clipPath>
<clipPath id="clip2">
  <path d="M 71 0.644531 L 132.59375 0.644531 L 132.59375 90 L 71 90 Z M 71 0.644531 "/>
</clipPath>
<clipPath id="clip3">
  <path d="M 0 0.644531 L 71 0.644531 L 71 91 L 0 91 Z M 0 0.644531 "/>
</clipPath>
</defs>
<g id="surface1">
<path style=" stroke:none;fill-rule:nonzero;fill:rgb(10.749817%,30.847168%,61.210632%);fill-opacity:1;" d="M 115.425781 101.054688 C 115.769531 101.054688 116.089844 101.054688 116.382812 101.058594 L 115.324219 106.535156 C 115.046875 108.03125 114.820312 109.015625 114.648438 109.484375 C 114.5625 109.71875 114.457031 109.882812 114.339844 109.972656 C 114.21875 110.0625 114.089844 110.105469 113.945312 110.105469 C 113.800781 110.105469 113.667969 110.054688 113.546875 109.953125 C 113.425781 109.851562 113.316406 109.683594 113.214844 109.453125 L 112.980469 109.496094 C 112.925781 109.757812 112.863281 110.003906 112.800781 110.222656 C 112.734375 110.445312 112.632812 110.738281 112.492188 111.101562 C 112.695312 111.183594 112.878906 111.222656 113.050781 111.222656 C 113.28125 111.222656 113.519531 111.15625 113.769531 111.027344 C 114.242188 110.777344 114.710938 110.386719 115.171875 109.851562 C 115.632812 109.316406 116.003906 108.699219 116.277344 107.996094 C 116.554688 107.296875 116.886719 106.160156 117.277344 104.582031 L 118.089844 101.058594 C 118.25 101.054688 118.496094 101.054688 118.824219 101.054688 C 119.347656 101.054688 119.722656 101.054688 119.953125 101.058594 C 120.003906 100.820312 120.078125 100.566406 120.183594 100.304688 L 120.109375 100.183594 C 119.953125 100.214844 119.714844 100.238281 119.394531 100.257812 C 118.871094 100.292969 118.542969 100.308594 118.410156 100.300781 L 118.242188 100.300781 C 118.355469 99.65625 118.5 99.003906 118.675781 98.355469 C 118.742188 98.113281 118.8125 97.933594 118.878906 97.816406 C 118.941406 97.699219 119.03125 97.605469 119.144531 97.539062 C 119.257812 97.46875 119.375 97.433594 119.496094 97.433594 C 119.652344 97.433594 119.828125 97.5 120.023438 97.625 C 120.21875 97.753906 120.421875 97.972656 120.625 98.277344 L 120.847656 98.234375 C 120.929688 97.648438 121.066406 97.023438 121.261719 96.363281 C 121.054688 96.285156 120.855469 96.246094 120.660156 96.246094 C 120.359375 96.246094 120.128906 96.28125 119.964844 96.355469 C 119.804688 96.425781 119.460938 96.648438 118.941406 97.023438 C 118.421875 97.398438 117.945312 97.785156 117.523438 98.179688 C 117.246094 98.4375 117.046875 98.691406 116.914062 98.933594 C 116.832031 99.089844 116.742188 99.378906 116.648438 99.796875 C 116.609375 99.984375 116.578125 100.113281 116.554688 100.183594 C 116.351562 100.28125 116.085938 100.371094 115.765625 100.460938 C 115.445312 100.554688 115.207031 100.628906 115.050781 100.6875 L 114.984375 101.058594 C 115.101562 101.054688 115.246094 101.054688 115.425781 101.054688 Z M 108.695312 102.773438 C 108.914062 101.957031 109.164062 101.402344 109.441406 101.113281 C 109.722656 100.824219 110.054688 100.675781 110.445312 100.675781 C 110.828125 100.675781 111.136719 100.8125 111.375 101.078125 C 111.613281 101.34375 111.730469 101.773438 111.730469 102.371094 C 111.730469 103.074219 111.628906 103.808594 111.421875 104.582031 C 111.28125 105.109375 111.125 105.523438 110.957031 105.824219 C 110.789062 106.125 110.601562 106.34375 110.398438 106.476562 C 110.195312 106.609375 109.953125 106.675781 109.675781 106.675781 C 109.261719 106.675781 108.9375 106.546875 108.710938 106.289062 C 108.484375 106.03125 108.371094 105.601562 108.371094 105 C 108.371094 104.332031 108.480469 103.589844 108.695312 102.773438 Z M 106.84375 106.242188 C 106.972656 106.601562 107.210938 106.882812 107.550781 107.089844 C 107.890625 107.292969 108.347656 107.394531 108.929688 107.394531 C 109.425781 107.394531 109.867188 107.320312 110.261719 107.171875 C 110.652344 107.023438 111.0625 106.808594 111.492188 106.519531 C 111.917969 106.234375 112.234375 105.976562 112.433594 105.742188 C 112.710938 105.402344 112.957031 104.917969 113.167969 104.28125 C 113.382812 103.644531 113.488281 103.003906 113.488281 102.363281 C 113.488281 102.027344 113.445312 101.71875 113.363281 101.433594 C 113.28125 101.152344 113.152344 100.910156 112.976562 100.707031 C 112.800781 100.503906 112.539062 100.339844 112.191406 100.210938 C 111.84375 100.085938 111.460938 100.019531 111.039062 100.019531 C 110.539062 100.019531 110.0625 100.117188 109.617188 100.308594 C 109.167969 100.503906 108.757812 100.746094 108.386719 101.042969 C 108.011719 101.339844 107.75 101.578125 107.605469 101.757812 C 107.371094 102.042969 107.152344 102.515625 106.949219 103.167969 C 106.746094 103.824219 106.644531 104.453125 106.644531 105.058594 C 106.644531 105.488281 106.710938 105.882812 106.84375 106.242188 "/>
<g clip-path="url(#clip1)" clip-rule="nonzero">
<path style=" stroke:none;fill-rule:nonzero;fill:rgb(10.749817%,30.847168%,61.210632%);fill-opacity:1;" d="M 119.738281 115.445312 L 122.980469 123.28125 C 122.058594 123.3125 121.019531 123.328125 119.855469 123.328125 C 118.652344 123.328125 117.574219 123.3125 116.625 123.28125 Z M 113.421875 131.359375 L 116.910156 131.46875 L 116.910156 130.21875 C 115.707031 130.179688 114.988281 130.085938 114.746094 129.945312 C 114.585938 129.847656 114.503906 129.675781 114.503906 129.433594 C 114.503906 129.09375 114.757812 128.230469 115.257812 126.839844 L 115.921875 125.03125 L 123.734375 125.03125 L 125.03125 128.347656 C 125.261719 128.921875 125.378906 129.332031 125.378906 129.585938 C 125.378906 129.789062 125.300781 129.929688 125.144531 130.015625 C 124.988281 130.101562 124.300781 130.167969 123.078125 130.21875 L 123.078125 131.46875 L 128.390625 131.359375 L 132.59375 131.46875 L 132.59375 130.21875 C 132.300781 130.1875 132.078125 130.164062 131.929688 130.144531 C 131.453125 130.113281 131.160156 130.078125 131.042969 130.039062 C 130.929688 129.996094 130.824219 129.9375 130.734375 129.855469 C 130.644531 129.773438 130.546875 129.644531 130.445312 129.460938 L 129.839844 128.070312 L 128.902344 125.996094 L 122.140625 110.1875 L 119.984375 110.1875 L 118.652344 113.625 L 114.703125 123.375 C 113.957031 125.222656 113.453125 126.457031 113.191406 127.085938 C 112.617188 128.417969 112.269531 129.1875 112.15625 129.394531 C 112.039062 129.601562 111.925781 129.75 111.816406 129.847656 C 111.703125 129.945312 111.570312 130.015625 111.414062 130.058594 C 111.257812 130.105469 110.769531 130.15625 109.953125 130.21875 L 109.953125 131.46875 Z M 96.246094 123.65625 L 96.246094 120.179688 C 96.246094 116.21875 96.300781 113.523438 96.402344 112.09375 C 97.34375 111.960938 98.199219 111.890625 98.976562 111.890625 C 101.046875 111.890625 102.589844 112.070312 103.609375 112.4375 C 104.628906 112.796875 105.46875 113.386719 106.136719 114.191406 C 106.800781 115 107.28125 115.941406 107.574219 117.015625 C 107.867188 118.089844 108.011719 119.203125 108.011719 120.351562 C 108.011719 121.613281 107.867188 122.789062 107.574219 123.878906 C 107.28125 124.96875 106.871094 125.90625 106.339844 126.695312 C 105.808594 127.480469 105.257812 128.078125 104.683594 128.480469 C 104.105469 128.886719 103.4375 129.191406 102.667969 129.40625 C 101.628906 129.6875 100.4375 129.828125 99.097656 129.828125 C 98.238281 129.828125 97.34375 129.75 96.402344 129.59375 C 96.300781 128.636719 96.246094 126.65625 96.246094 123.65625 Z M 94.9375 131.359375 L 99.433594 131.46875 C 101.46875 131.46875 103.207031 131.246094 104.652344 130.792969 C 106.09375 130.347656 107.429688 129.609375 108.667969 128.59375 C 109.902344 127.570312 110.871094 126.304688 111.578125 124.789062 C 112.285156 123.273438 112.636719 121.554688 112.636719 119.625 C 112.636719 118.109375 112.398438 116.71875 111.925781 115.445312 C 111.644531 114.6875 111.226562 113.980469 110.679688 113.324219 C 110.128906 112.667969 109.453125 112.101562 108.660156 111.621094 C 107.863281 111.140625 106.925781 110.792969 105.851562 110.578125 C 104.777344 110.359375 103.347656 110.25 101.5625 110.25 C 100.785156 110.25 99.753906 110.269531 98.460938 110.304688 C 96.675781 110.363281 95.460938 110.390625 94.816406 110.390625 L 89.324219 110.28125 L 89.324219 111.5 C 90.421875 111.640625 91.054688 111.734375 91.226562 111.773438 C 91.394531 111.8125 91.519531 111.875 91.601562 111.957031 C 91.652344 112.003906 91.691406 112.078125 91.722656 112.167969 C 91.824219 112.5625 91.886719 113.46875 91.917969 114.894531 C 91.972656 117.46875 91.996094 119.421875 91.996094 120.753906 L 91.996094 123.238281 C 91.996094 126.277344 91.9375 128.476562 91.824219 129.828125 C 91.503906 130.0625 91.15625 130.285156 90.777344 130.496094 C 90.578125 130.609375 90.4375 130.6875 90.355469 130.738281 L 90.355469 131.46875 Z M 83.226562 110.390625 C 81.578125 110.390625 80.117188 110.355469 78.847656 110.28125 L 78.847656 111.609375 C 79.949219 111.648438 80.589844 111.691406 80.765625 111.738281 C 80.941406 111.785156 81.0625 111.84375 81.128906 111.914062 C 81.195312 111.984375 81.242188 112.085938 81.273438 112.214844 C 81.34375 112.539062 81.40625 113.34375 81.457031 114.625 C 81.476562 115.203125 81.488281 116.492188 81.488281 118.503906 L 81.488281 124.835938 C 81.488281 125.867188 81.445312 126.988281 81.363281 128.199219 C 81.3125 129.03125 81.269531 129.503906 81.238281 129.625 C 81.21875 129.71875 81.171875 129.796875 81.097656 129.867188 C 81.019531 129.9375 80.875 129.992188 80.664062 130.035156 C 80.503906 130.066406 79.898438 130.101562 78.847656 130.140625 L 78.847656 131.46875 C 80.117188 131.394531 81.570312 131.359375 83.195312 131.359375 C 85.066406 131.359375 86.824219 131.394531 88.472656 131.46875 L 88.472656 130.140625 C 87.472656 130.121094 86.871094 130.085938 86.660156 130.042969 C 86.453125 129.996094 86.300781 129.9375 86.207031 129.859375 C 86.109375 129.785156 86.039062 129.675781 86 129.535156 C 85.898438 129.222656 85.847656 128.542969 85.847656 127.503906 L 85.800781 124.730469 L 85.800781 118.625 C 85.800781 118.433594 85.820312 117.09375 85.863281 114.609375 C 85.871094 113.882812 85.886719 113.386719 85.90625 113.125 C 85.9375 112.640625 85.988281 112.3125 86.0625 112.140625 C 86.089844 112.039062 86.148438 111.957031 86.230469 111.890625 C 86.308594 111.824219 86.449219 111.769531 86.640625 111.722656 C 86.835938 111.679688 87.445312 111.640625 88.472656 111.609375 L 88.472656 110.28125 C 86.824219 110.355469 85.078125 110.390625 83.226562 110.390625 Z M 59.082031 111.851562 C 59.179688 111.910156 59.253906 111.996094 59.304688 112.105469 C 59.40625 112.359375 59.464844 113.117188 59.484375 114.378906 L 59.5625 117.574219 L 59.5625 123.191406 L 59.4375 127.613281 C 59.40625 128.410156 59.359375 129.003906 59.285156 129.398438 C 59.257812 129.609375 59.214844 129.75 59.160156 129.824219 C 59.105469 129.894531 59.015625 129.945312 58.894531 129.972656 C 58.683594 130.042969 58.007812 130.101562 56.859375 130.140625 L 56.859375 131.46875 C 58.203125 131.394531 59.65625 131.359375 61.230469 131.359375 C 62.996094 131.359375 64.738281 131.394531 66.464844 131.46875 L 66.464844 130.140625 C 65.496094 130.121094 64.910156 130.089844 64.710938 130.050781 C 64.507812 130.011719 64.359375 129.957031 64.269531 129.890625 C 64.179688 129.824219 64.113281 129.753906 64.074219 129.671875 C 63.992188 129.5 63.9375 129.132812 63.90625 128.566406 C 63.886719 128.285156 63.855469 127.105469 63.8125 125.027344 C 63.78125 123.332031 63.765625 121.730469 63.765625 120.21875 C 63.765625 119.261719 63.796875 117.355469 63.859375 114.5 C 63.890625 113.226562 63.921875 112.40625 63.953125 112.042969 C 64.429688 111.964844 64.90625 111.921875 65.394531 111.921875 C 66.484375 111.921875 67.242188 111.996094 67.664062 112.148438 C 68.324219 112.390625 68.875 112.820312 69.320312 113.4375 C 69.761719 114.050781 69.984375 114.824219 69.984375 115.753906 C 69.984375 116.667969 69.773438 117.5 69.347656 118.242188 C 68.925781 118.984375 68.402344 119.496094 67.785156 119.785156 C 67.167969 120.074219 66.253906 120.195312 65.042969 120.15625 L 64.875 120.65625 C 65.179688 120.878906 65.492188 121.210938 65.816406 121.652344 C 66.460938 122.53125 67.246094 123.734375 68.175781 125.269531 L 71.417969 130.605469 C 71.609375 130.960938 71.730469 131.246094 71.78125 131.46875 C 72.578125 131.425781 73.378906 131.40625 74.1875 131.40625 C 74.882812 131.40625 76.007812 131.425781 77.5625 131.46875 L 77.5625 130.140625 C 77.089844 130.132812 76.769531 130.089844 76.609375 130.019531 C 76.449219 129.949219 76.28125 129.824219 76.109375 129.644531 C 75.9375 129.464844 75.472656 128.875 74.714844 127.875 C 74.664062 127.804688 74.328125 127.304688 73.703125 126.371094 L 71.355469 122.875 C 71.292969 122.785156 71.234375 122.6875 71.179688 122.589844 C 71.125 122.488281 70.9375 122.203125 70.613281 121.734375 C 70.289062 121.261719 70.003906 120.800781 69.75 120.351562 C 71.328125 119.765625 72.496094 118.972656 73.253906 117.972656 C 74.011719 116.976562 74.390625 115.863281 74.390625 114.640625 C 74.390625 113.613281 74.113281 112.738281 73.558594 112.023438 C 73.003906 111.304688 72.332031 110.835938 71.542969 110.605469 C 70.757812 110.378906 69.574219 110.265625 67.988281 110.265625 C 67.167969 110.265625 66.136719 110.292969 64.882812 110.351562 C 64.128906 110.398438 63.21875 110.421875 62.160156 110.421875 C 60.917969 110.421875 59.957031 110.410156 59.28125 110.386719 C 57.902344 110.335938 57.09375 110.3125 56.859375 110.3125 L 56.859375 111.546875 C 58.101562 111.628906 58.839844 111.730469 59.082031 111.851562 Z M 39.265625 115.734375 C 39.738281 114.382812 40.488281 113.355469 41.523438 112.664062 C 42.558594 111.972656 43.8125 111.625 45.285156 111.625 C 46.578125 111.625 47.613281 111.84375 48.398438 112.277344 C 49.179688 112.710938 49.859375 113.34375 50.433594 114.164062 C 51.007812 114.988281 51.449219 115.988281 51.757812 117.160156 C 52.066406 118.335938 52.21875 119.628906 52.21875 121.042969 C 52.21875 123.109375 51.933594 124.863281 51.363281 126.308594 C 50.792969 127.753906 50.007812 128.78125 49.003906 129.386719 C 47.996094 129.992188 46.859375 130.296875 45.589844 130.296875 C 44.214844 130.296875 43.027344 129.980469 42.015625 129.34375 C 41.007812 128.707031 40.179688 127.613281 39.53125 126.074219 C 38.886719 124.53125 38.5625 122.582031 38.5625 120.226562 C 38.5625 118.585938 38.796875 117.089844 39.265625 115.734375 Z M 35.300781 127.125 C 36.226562 128.730469 37.507812 129.941406 39.136719 130.765625 C 40.765625 131.589844 42.714844 132 44.984375 132 C 47.082031 132 48.949219 131.660156 50.582031 130.984375 C 51.773438 130.480469 52.835938 129.757812 53.765625 128.820312 C 54.699219 127.882812 55.40625 126.804688 55.894531 125.59375 C 56.546875 123.96875 56.875 122.207031 56.875 120.308594 C 56.875 119.1875 56.761719 118.164062 56.535156 117.234375 C 56.308594 116.308594 55.972656 115.453125 55.53125 114.675781 C 55.085938 113.898438 54.4375 113.140625 53.585938 112.398438 C 52.734375 111.65625 51.753906 111.089844 50.640625 110.695312 C 49.148438 110.179688 47.484375 109.921875 45.648438 109.921875 C 43.804688 109.921875 42.097656 110.191406 40.535156 110.726562 C 39.3125 111.148438 38.183594 111.839844 37.144531 112.796875 C 36.105469 113.757812 35.308594 114.921875 34.746094 116.296875 C 34.1875 117.667969 33.90625 119.28125 33.90625 121.128906 C 33.90625 123.519531 34.371094 125.519531 35.300781 127.125 Z M 22.242188 131.328125 C 22.898438 131.328125 24.058594 131.347656 25.722656 131.390625 C 27.910156 131.441406 29.097656 131.46875 29.277344 131.46875 C 30.570312 131.46875 31.523438 131.441406 32.136719 131.390625 C 32.429688 131.359375 32.722656 131.300781 33.015625 131.21875 C 33.027344 131.027344 33.070312 130.453125 33.152344 129.492188 L 33.53125 126.4375 C 33.53125 126.386719 33.546875 126.21875 33.578125 125.9375 L 32.328125 125.9375 C 32.136719 126.929688 31.9375 127.8125 31.738281 128.582031 C 31.644531 128.886719 31.558594 129.074219 31.480469 129.144531 C 31.398438 129.21875 31.152344 129.28125 30.738281 129.34375 C 29.597656 129.519531 28.257812 129.609375 26.722656 129.609375 C 26.21875 129.609375 25.269531 129.574219 23.875 129.5 C 23.863281 129.195312 23.855469 128.335938 23.851562 126.917969 C 23.847656 125.5 23.839844 124.070312 23.828125 122.628906 C 23.816406 119.894531 23.8125 118.4375 23.8125 118.253906 C 23.8125 116.558594 23.835938 115.15625 23.882812 114.046875 C 23.929688 112.9375 23.976562 112.3125 24.027344 112.175781 C 24.078125 112.039062 24.160156 111.941406 24.269531 111.882812 C 24.523438 111.75 25.21875 111.660156 26.359375 111.609375 L 26.359375 110.28125 C 24.714844 110.355469 22.972656 110.390625 21.136719 110.390625 C 19.492188 110.390625 18.03125 110.355469 16.75 110.28125 L 16.75 111.609375 C 18.066406 111.660156 18.839844 111.761719 19.074219 111.914062 C 19.183594 111.972656 19.261719 112.0625 19.300781 112.183594 C 19.390625 112.457031 19.453125 113.542969 19.488281 115.441406 C 19.507812 116.1875 19.515625 118.15625 19.515625 121.347656 C 19.515625 123.519531 19.492188 125.378906 19.453125 126.925781 C 19.410156 128.476562 19.363281 129.378906 19.316406 129.632812 C 19.304688 129.691406 19.28125 129.746094 19.238281 129.796875 C 19.179688 129.878906 19.042969 129.980469 18.832031 130.101562 C 18.359375 130.382812 17.996094 130.582031 17.734375 130.691406 L 17.734375 131.46875 C 19.75 131.375 21.253906 131.328125 22.242188 131.328125 Z M 13.816406 117.546875 L 12.488281 117.546875 C 12.46875 118.441406 12.414062 119.015625 12.324219 119.269531 C 12.261719 119.460938 12.167969 119.578125 12.035156 119.617188 C 11.695312 119.738281 10.871094 119.796875 9.5625 119.796875 C 9.113281 119.796875 8.242188 119.761719 6.957031 119.691406 L 6.957031 117.585938 C 6.957031 114.96875 7.015625 113.160156 7.128906 112.15625 C 7.410156 112.136719 7.941406 112.113281 8.722656 112.089844 C 9.503906 112.0625 9.980469 112.046875 10.152344 112.046875 C 11.039062 112.046875 11.8125 112.105469 12.472656 112.21875 C 13.132812 112.335938 13.550781 112.453125 13.734375 112.574219 C 13.792969 112.601562 13.839844 112.652344 13.867188 112.722656 C 13.910156 112.8125 13.9375 113.078125 13.960938 113.519531 C 14.011719 114.359375 14.035156 114.902344 14.035156 115.140625 L 15.269531 115.140625 C 15.28125 114.476562 15.324219 113.695312 15.40625 112.808594 C 15.484375 111.921875 15.582031 111.1875 15.691406 110.613281 L 15.554688 110.402344 C 14.644531 110.300781 13.683594 110.25 12.664062 110.25 L 5.378906 110.390625 L 0.00390625 110.28125 L 0.00390625 111.546875 C 0.980469 111.609375 1.578125 111.664062 1.792969 111.714844 C 2.015625 111.765625 2.15625 111.816406 2.222656 111.871094 C 2.289062 111.929688 2.335938 112.011719 2.367188 112.121094 C 2.457031 112.445312 2.515625 112.996094 2.535156 113.773438 C 2.628906 116.464844 2.675781 117.878906 2.675781 118.019531 L 2.675781 124.292969 C 2.675781 124.828125 2.648438 125.710938 2.597656 126.9375 C 2.542969 128.167969 2.503906 128.894531 2.472656 129.128906 C 2.421875 129.53125 2.351562 129.792969 2.261719 129.917969 C 2.199219 129.996094 2.125 130.050781 2.03125 130.082031 C 1.847656 130.152344 1.171875 130.199219 0.00390625 130.21875 L 0.00390625 131.46875 C 1.863281 131.394531 3.226562 131.359375 4.085938 131.359375 L 10.035156 131.46875 L 10.035156 130.265625 C 8.632812 130.164062 7.839844 130.082031 7.660156 130.015625 C 7.476562 129.949219 7.351562 129.863281 7.28125 129.75 C 7.179688 129.589844 7.101562 129.027344 7.042969 128.066406 C 6.984375 127.101562 6.957031 125.425781 6.957031 123.039062 L 6.957031 121.359375 C 7.53125 121.347656 7.929688 121.34375 8.164062 121.34375 C 9.769531 121.34375 10.945312 121.410156 11.6875 121.539062 C 11.980469 121.601562 12.160156 121.695312 12.230469 121.828125 C 12.371094 122.089844 12.457031 122.851562 12.488281 124.109375 L 13.816406 124.109375 C 13.816406 121.449219 13.816406 119.261719 13.816406 117.546875 "/>
</g>
<path style=" stroke:none;fill-rule:nonzero;fill:rgb(10.749817%,30.847168%,61.210632%);fill-opacity:1;" d="M 95.660156 99.890625 C 95.355469 99.292969 95.046875 98.769531 94.738281 98.3125 C 94.53125 98.003906 94.367188 97.792969 94.25 97.679688 C 94.132812 97.566406 93.945312 97.441406 93.6875 97.296875 C 93.445312 97.359375 93.210938 97.417969 92.980469 97.46875 L 91.636719 97.734375 L 91.636719 98.210938 C 91.957031 98.210938 92.140625 98.222656 92.195312 98.246094 C 92.285156 98.292969 92.433594 98.433594 92.648438 98.660156 C 92.964844 99.007812 93.308594 99.46875 93.675781 100.042969 C 94.128906 100.75 94.554688 101.464844 94.953125 102.191406 C 95.113281 102.496094 95.191406 102.699219 95.191406 102.796875 L 95.191406 104 C 95.191406 104.339844 95.183594 104.75 95.160156 105.230469 C 95.148438 105.441406 95.125 105.570312 95.09375 105.613281 C 95.0625 105.65625 95.003906 105.6875 94.921875 105.707031 C 94.839844 105.730469 94.558594 105.746094 94.074219 105.765625 L 94.074219 106.328125 C 94.726562 106.296875 95.367188 106.28125 96.003906 106.28125 C 96.65625 106.28125 97.382812 106.296875 98.191406 106.328125 L 98.191406 105.765625 C 97.722656 105.757812 97.441406 105.738281 97.351562 105.714844 C 97.261719 105.6875 97.199219 105.652344 97.160156 105.601562 C 97.121094 105.546875 97.089844 105.402344 97.0625 105.15625 C 97.035156 104.910156 97.019531 104.519531 97.019531 103.980469 L 97.019531 102.910156 C 97.019531 102.691406 97.03125 102.53125 97.050781 102.433594 C 97.082031 102.296875 97.144531 102.140625 97.234375 101.957031 C 97.375 101.691406 97.742188 101.09375 98.335938 100.160156 C 98.929688 99.230469 99.484375 98.417969 99.996094 97.730469 L 99.996094 97.445312 L 98.992188 97.445312 C 98.933594 97.566406 98.789062 97.832031 98.554688 98.238281 C 97.890625 99.417969 97.488281 100.128906 97.351562 100.359375 L 96.554688 101.652344 C 96.453125 101.433594 96.15625 100.847656 95.660156 99.890625 Z M 85.265625 106.273438 C 85.828125 106.273438 86.519531 106.289062 87.34375 106.328125 L 87.34375 105.804688 C 86.832031 105.785156 86.53125 105.753906 86.433594 105.699219 C 86.335938 105.644531 86.269531 105.566406 86.242188 105.457031 C 86.195312 105.269531 86.167969 104.71875 86.167969 103.804688 L 86.167969 100.003906 C 86.167969 98.992188 86.175781 98.414062 86.1875 98.265625 L 87.097656 98.265625 C 87.585938 98.265625 88.003906 98.28125 88.347656 98.316406 C 88.460938 98.324219 88.527344 98.339844 88.550781 98.359375 C 88.582031 98.390625 88.609375 98.480469 88.636719 98.632812 C 88.679688 98.933594 88.710938 99.246094 88.71875 99.578125 L 89.242188 99.578125 C 89.253906 98.683594 89.261719 98.222656 89.265625 98.1875 C 89.273438 97.992188 89.296875 97.765625 89.335938 97.507812 L 89.269531 97.445312 C 89.074219 97.464844 88.875 97.480469 88.679688 97.488281 C 88.324219 97.5 87.609375 97.507812 86.542969 97.507812 L 83.984375 97.507812 C 82.949219 97.507812 82.246094 97.5 81.886719 97.488281 C 81.660156 97.480469 81.449219 97.464844 81.25 97.445312 L 81.195312 97.507812 C 81.222656 97.722656 81.242188 97.925781 81.257812 98.109375 C 81.261719 98.222656 81.269531 98.710938 81.289062 99.578125 L 81.8125 99.578125 C 81.820312 99.210938 81.851562 98.878906 81.90625 98.582031 C 81.929688 98.460938 81.953125 98.386719 81.984375 98.359375 C 82.003906 98.339844 82.085938 98.324219 82.222656 98.308594 C 82.574219 98.28125 82.976562 98.265625 83.433594 98.265625 L 84.34375 98.265625 C 84.351562 98.386719 84.359375 98.96875 84.359375 100.003906 L 84.359375 103.804688 C 84.359375 104.71875 84.335938 105.265625 84.289062 105.449219 C 84.253906 105.566406 84.1875 105.652344 84.09375 105.703125 C 83.996094 105.753906 83.695312 105.785156 83.1875 105.804688 L 83.1875 106.328125 C 83.96875 106.289062 84.660156 106.273438 85.265625 106.273438 Z M 76.449219 97.492188 C 75.757812 97.492188 75.144531 97.476562 74.613281 97.445312 L 74.613281 98.007812 C 75.070312 98.023438 75.335938 98.042969 75.410156 98.0625 C 75.484375 98.082031 75.535156 98.105469 75.5625 98.132812 C 75.589844 98.164062 75.609375 98.207031 75.621094 98.261719 C 75.652344 98.394531 75.675781 98.730469 75.699219 99.269531 C 75.707031 99.511719 75.714844 100.050781 75.714844 100.894531 L 75.714844 103.542969 C 75.714844 103.976562 75.695312 104.445312 75.660156 104.953125 C 75.636719 105.300781 75.621094 105.496094 75.609375 105.546875 C 75.601562 105.585938 75.582031 105.621094 75.546875 105.652344 C 75.515625 105.679688 75.457031 105.703125 75.367188 105.71875 C 75.300781 105.734375 75.050781 105.746094 74.613281 105.765625 L 74.613281 106.328125 C 75.144531 106.296875 75.753906 106.28125 76.433594 106.28125 C 77.21875 106.28125 77.953125 106.296875 78.644531 106.328125 L 78.644531 105.765625 C 78.226562 105.757812 77.972656 105.742188 77.882812 105.722656 C 77.796875 105.703125 77.734375 105.679688 77.691406 105.648438 C 77.652344 105.617188 77.621094 105.570312 77.605469 105.511719 C 77.5625 105.378906 77.542969 105.097656 77.542969 104.660156 L 77.527344 103.5 L 77.527344 100.945312 C 77.527344 100.863281 77.535156 100.304688 77.554688 99.261719 C 77.558594 98.960938 77.5625 98.75 77.574219 98.640625 C 77.585938 98.4375 77.605469 98.300781 77.636719 98.230469 C 77.648438 98.1875 77.671875 98.152344 77.707031 98.125 C 77.738281 98.097656 77.796875 98.074219 77.878906 98.054688 C 77.960938 98.035156 78.214844 98.019531 78.644531 98.007812 L 78.644531 97.445312 C 77.953125 97.476562 77.222656 97.492188 76.449219 97.492188 Z M 70.808594 98.722656 C 70.835938 98.460938 70.878906 98.191406 70.9375 97.914062 L 70.886719 97.765625 C 70.578125 97.613281 70.210938 97.496094 69.789062 97.414062 C 69.367188 97.335938 68.933594 97.296875 68.484375 97.296875 C 68.054688 97.296875 67.632812 97.34375 67.222656 97.4375 C 66.8125 97.535156 66.445312 97.691406 66.117188 97.910156 C 65.789062 98.132812 65.527344 98.441406 65.328125 98.839844 C 65.128906 99.242188 65.03125 99.679688 65.03125 100.152344 C 65.03125 100.488281 65.085938 100.804688 65.195312 101.101562 C 65.304688 101.394531 65.472656 101.644531 65.695312 101.851562 C 65.917969 102.058594 66.210938 102.21875 66.574219 102.328125 C 66.816406 102.398438 67.320312 102.515625 68.085938 102.675781 C 68.617188 102.800781 68.992188 102.917969 69.203125 103.03125 C 69.414062 103.148438 69.570312 103.296875 69.671875 103.488281 C 69.769531 103.679688 69.820312 103.910156 69.820312 104.175781 C 69.820312 104.492188 69.75 104.777344 69.605469 105.027344 C 69.464844 105.277344 69.234375 105.472656 68.921875 105.613281 C 68.605469 105.757812 68.246094 105.828125 67.84375 105.828125 C 67.382812 105.828125 66.957031 105.726562 66.566406 105.527344 C 66.179688 105.328125 65.902344 105.097656 65.742188 104.835938 C 65.6875 104.378906 65.664062 104 65.671875 103.695312 L 65.140625 103.695312 C 65.136719 104.679688 65.070312 105.414062 64.9375 105.898438 C 65.425781 106.136719 65.871094 106.304688 66.277344 106.398438 C 66.683594 106.496094 67.144531 106.546875 67.664062 106.546875 C 68.375 106.546875 68.984375 106.445312 69.492188 106.242188 C 69.8125 106.113281 70.117188 105.921875 70.417969 105.667969 C 70.71875 105.410156 70.957031 105.128906 71.125 104.820312 C 71.347656 104.410156 71.460938 103.933594 71.460938 103.390625 C 71.460938 103.085938 71.417969 102.804688 71.339844 102.558594 C 71.261719 102.3125 71.15625 102.105469 71.03125 101.941406 C 70.90625 101.78125 70.738281 101.636719 70.527344 101.511719 C 70.316406 101.386719 70.039062 101.277344 69.699219 101.191406 C 69.566406 101.160156 69.28125 101.109375 68.84375 101.03125 C 68.40625 100.957031 68.066406 100.890625 67.820312 100.839844 C 67.496094 100.757812 67.253906 100.664062 67.089844 100.5625 C 66.925781 100.460938 66.796875 100.324219 66.710938 100.148438 C 66.621094 99.976562 66.574219 99.75 66.570312 99.46875 C 66.570312 99.082031 66.726562 98.738281 67.042969 98.449219 C 67.359375 98.160156 67.804688 98.015625 68.382812 98.015625 C 68.785156 98.015625 69.148438 98.085938 69.472656 98.230469 C 69.796875 98.375 70.023438 98.539062 70.15625 98.726562 C 70.1875 98.929688 70.210938 99.273438 70.21875 99.765625 L 70.75 99.765625 C 70.761719 99.335938 70.78125 98.988281 70.808594 98.722656 Z M 54.417969 98.09375 C 54.460938 98.121094 54.492188 98.15625 54.511719 98.203125 C 54.554688 98.308594 54.582031 98.625 54.589844 99.15625 L 54.621094 100.496094 L 54.621094 102.851562 L 54.566406 104.703125 C 54.550781 105.039062 54.53125 105.289062 54.503906 105.453125 C 54.488281 105.542969 54.472656 105.601562 54.449219 105.632812 C 54.425781 105.660156 54.386719 105.683594 54.339844 105.695312 C 54.25 105.726562 53.964844 105.746094 53.488281 105.765625 L 53.488281 106.328125 C 54.050781 106.296875 54.660156 106.28125 55.320312 106.28125 C 56.058594 106.28125 56.789062 106.296875 57.511719 106.328125 L 57.511719 105.765625 C 57.105469 105.757812 56.859375 105.742188 56.777344 105.726562 C 56.691406 105.710938 56.632812 105.6875 56.59375 105.660156 C 56.554688 105.632812 56.527344 105.601562 56.511719 105.566406 C 56.476562 105.496094 56.453125 105.339844 56.441406 105.105469 C 56.433594 104.984375 56.417969 104.488281 56.40625 103.617188 C 56.390625 102.90625 56.386719 102.230469 56.386719 101.597656 C 56.386719 101.195312 56.398438 100.394531 56.425781 99.195312 C 56.4375 98.660156 56.449219 98.320312 56.464844 98.167969 C 56.660156 98.132812 56.863281 98.117188 57.066406 98.117188 C 57.523438 98.117188 57.839844 98.148438 58.015625 98.210938 C 58.292969 98.3125 58.523438 98.492188 58.707031 98.753906 C 58.894531 99.011719 58.988281 99.335938 58.988281 99.726562 C 58.988281 100.113281 58.898438 100.460938 58.71875 100.773438 C 58.542969 101.085938 58.324219 101.300781 58.066406 101.421875 C 57.808594 101.542969 57.425781 101.59375 56.914062 101.578125 L 56.847656 101.785156 C 56.972656 101.878906 57.105469 102.019531 57.238281 102.207031 C 57.511719 102.574219 57.839844 103.082031 58.230469 103.722656 L 59.589844 105.964844 C 59.667969 106.113281 59.722656 106.234375 59.742188 106.328125 C 60.078125 106.3125 60.414062 106.304688 60.75 106.304688 C 61.042969 106.304688 61.515625 106.3125 62.167969 106.328125 L 62.167969 105.765625 C 61.96875 105.761719 61.835938 105.742188 61.765625 105.714844 C 61.699219 105.683594 61.628906 105.632812 61.558594 105.558594 C 61.484375 105.480469 61.289062 105.234375 60.972656 104.8125 C 60.953125 104.785156 60.808594 104.574219 60.546875 104.183594 L 59.5625 102.71875 C 59.539062 102.679688 59.515625 102.640625 59.488281 102.597656 C 59.46875 102.554688 59.386719 102.4375 59.253906 102.238281 C 59.117188 102.039062 58.996094 101.847656 58.890625 101.660156 C 59.550781 101.414062 60.039062 101.082031 60.355469 100.660156 C 60.671875 100.242188 60.832031 99.777344 60.832031 99.265625 C 60.832031 98.832031 60.714844 98.464844 60.480469 98.164062 C 60.25 97.863281 59.96875 97.667969 59.636719 97.574219 C 59.308594 97.476562 58.8125 97.429688 58.148438 97.429688 C 57.804688 97.429688 57.371094 97.441406 56.847656 97.464844 C 56.53125 97.480469 56.152344 97.492188 55.707031 97.492188 C 55.1875 97.492188 54.785156 97.484375 54.503906 97.476562 C 53.921875 97.457031 53.585938 97.445312 53.488281 97.445312 L 53.488281 97.96875 C 54.007812 98.003906 54.320312 98.042969 54.417969 98.09375 Z M 46.074219 106.273438 C 46.453125 106.273438 47.144531 106.28125 48.152344 106.296875 L 49.171875 106.320312 C 49.671875 106.320312 50.058594 106.304688 50.328125 106.273438 L 50.410156 106.191406 C 50.410156 105.648438 50.457031 104.960938 50.546875 104.125 L 50.023438 104.125 C 49.9375 104.691406 49.859375 105.074219 49.78125 105.277344 C 49.757812 105.335938 49.730469 105.375 49.703125 105.390625 C 49.613281 105.445312 49.375 105.488281 48.988281 105.515625 C 48.605469 105.546875 48.183594 105.5625 47.730469 105.5625 C 47.261719 105.5625 46.855469 105.546875 46.515625 105.515625 C 46.503906 105.300781 46.5 105.046875 46.5 104.75 L 46.5 102.09375 C 46.769531 102.0625 47.109375 102.046875 47.523438 102.046875 C 47.980469 102.046875 48.359375 102.070312 48.652344 102.117188 C 48.785156 102.136719 48.875 102.1875 48.925781 102.273438 C 48.996094 102.386719 49.027344 102.6875 49.023438 103.179688 L 49.539062 103.179688 L 49.507812 101.789062 L 49.539062 100.398438 L 49.023438 100.398438 C 49.015625 100.773438 48.984375 101.042969 48.933594 101.203125 C 48.914062 101.265625 48.882812 101.308594 48.84375 101.335938 C 48.804688 101.359375 48.667969 101.375 48.445312 101.378906 C 47.839844 101.398438 47.492188 101.40625 47.394531 101.40625 C 47.085938 101.40625 46.785156 101.394531 46.5 101.375 L 46.5 100.066406 C 46.5 99.324219 46.527344 98.714844 46.585938 98.234375 C 46.976562 98.203125 47.359375 98.1875 47.734375 98.1875 C 48.136719 98.1875 48.546875 98.210938 48.964844 98.257812 C 49.246094 98.285156 49.414062 98.320312 49.46875 98.359375 C 49.503906 98.382812 49.527344 98.425781 49.542969 98.484375 C 49.574219 98.597656 49.59375 98.90625 49.601562 99.40625 L 50.09375 99.40625 C 50.132812 98.859375 50.152344 98.554688 50.15625 98.488281 L 50.28125 97.574219 L 50.234375 97.492188 C 50.136719 97.464844 50.066406 97.449219 50.027344 97.449219 C 49.558594 97.433594 49.25 97.425781 49.097656 97.425781 L 47.8125 97.457031 C 47.101562 97.46875 46.457031 97.476562 45.878906 97.476562 C 45.613281 97.476562 45.332031 97.476562 45.039062 97.476562 L 43.570312 97.492188 L 43.570312 97.984375 C 44.066406 98.007812 44.371094 98.046875 44.488281 98.097656 C 44.53125 98.117188 44.5625 98.152344 44.582031 98.191406 C 44.628906 98.296875 44.660156 98.589844 44.671875 99.066406 C 44.683594 99.78125 44.6875 100.195312 44.6875 100.304688 L 44.6875 103.160156 C 44.6875 103.488281 44.667969 104.019531 44.636719 104.746094 C 44.617188 105.144531 44.597656 105.429688 44.570312 105.609375 C 44.410156 105.734375 44.207031 105.859375 43.953125 105.976562 L 43.953125 106.320312 C 45.265625 106.289062 45.96875 106.273438 46.074219 106.273438 Z M 36.890625 106.375 C 37.144531 105.652344 37.640625 104.417969 38.367188 102.675781 L 39.222656 100.632812 L 39.675781 99.582031 C 40.035156 98.710938 40.277344 98.230469 40.390625 98.140625 C 40.457031 98.089844 40.699219 98.042969 41.105469 98.007812 L 41.105469 97.445312 L 39.738281 97.492188 L 38.125 97.445312 L 38.125 98.007812 C 38.316406 98.011719 38.546875 98.027344 38.824219 98.050781 C 38.945312 98.058594 39.023438 98.070312 39.050781 98.082031 C 39.089844 98.101562 39.121094 98.125 39.144531 98.160156 C 39.167969 98.199219 39.179688 98.253906 39.179688 98.324219 C 39.179688 98.375 39.175781 98.425781 39.164062 98.476562 C 39.121094 98.648438 39.007812 98.988281 38.816406 99.496094 C 38.550781 100.21875 38.398438 100.617188 38.367188 100.699219 L 36.957031 104.191406 L 35.347656 100.273438 C 35.332031 100.226562 35.320312 100.1875 35.308594 100.15625 C 35.296875 100.121094 35.210938 99.910156 35.050781 99.523438 C 34.769531 98.847656 34.632812 98.445312 34.632812 98.316406 C 34.632812 98.253906 34.652344 98.203125 34.6875 98.160156 C 34.722656 98.121094 34.785156 98.09375 34.878906 98.070312 C 35.039062 98.03125 35.296875 98.011719 35.65625 98.007812 L 35.65625 97.445312 L 33.375 97.492188 C 33.15625 97.492188 32.535156 97.476562 31.519531 97.445312 L 31.519531 98.007812 C 31.917969 98.015625 32.179688 98.054688 32.308594 98.121094 C 32.394531 98.167969 32.515625 98.351562 32.679688 98.675781 C 32.84375 99 33.277344 100.003906 33.984375 101.691406 L 34.886719 103.84375 C 35.214844 104.640625 35.558594 105.484375 35.917969 106.375 Z M 26.75 97.492188 C 26.0625 97.492188 25.449219 97.476562 24.914062 97.445312 L 24.914062 98.007812 C 25.375 98.023438 25.640625 98.042969 25.714844 98.0625 C 25.789062 98.082031 25.839844 98.105469 25.867188 98.132812 C 25.894531 98.164062 25.914062 98.207031 25.925781 98.261719 C 25.957031 98.394531 25.980469 98.730469 26.003906 99.269531 C 26.011719 99.511719 26.015625 100.050781 26.015625 100.894531 L 26.015625 103.542969 C 26.015625 103.976562 26 104.445312 25.964844 104.953125 C 25.941406 105.300781 25.925781 105.496094 25.910156 105.546875 C 25.90625 105.585938 25.882812 105.621094 25.851562 105.652344 C 25.820312 105.679688 25.761719 105.703125 25.671875 105.71875 C 25.605469 105.734375 25.351562 105.746094 24.914062 105.765625 L 24.914062 106.328125 C 25.449219 106.296875 26.058594 106.28125 26.738281 106.28125 C 27.519531 106.28125 28.257812 106.296875 28.949219 106.328125 L 28.949219 105.765625 C 28.53125 105.757812 28.277344 105.742188 28.1875 105.722656 C 28.101562 105.703125 28.035156 105.679688 27.996094 105.648438 C 27.957031 105.617188 27.925781 105.570312 27.910156 105.511719 C 27.867188 105.378906 27.847656 105.097656 27.847656 104.660156 L 27.832031 103.5 L 27.832031 100.945312 C 27.832031 100.863281 27.839844 100.304688 27.855469 99.261719 C 27.859375 98.960938 27.867188 98.75 27.878906 98.640625 C 27.890625 98.4375 27.910156 98.300781 27.941406 98.230469 C 27.953125 98.1875 27.976562 98.152344 28.011719 98.125 C 28.042969 98.097656 28.101562 98.074219 28.183594 98.054688 C 28.261719 98.035156 28.519531 98.019531 28.949219 98.007812 L 28.949219 97.445312 C 28.257812 97.476562 27.527344 97.492188 26.75 97.492188 Z M 12.117188 106.328125 C 12.824219 106.296875 13.382812 106.28125 13.796875 106.28125 C 13.90625 106.28125 14.363281 106.289062 15.167969 106.304688 L 15.167969 105.789062 C 15.109375 105.792969 15.066406 105.792969 15.042969 105.792969 C 14.914062 105.792969 14.714844 105.777344 14.4375 105.742188 C 14.335938 105.730469 14.265625 105.710938 14.226562 105.675781 C 14.1875 105.644531 14.15625 105.605469 14.140625 105.554688 C 14.105469 105.449219 14.082031 105.148438 14.0625 104.65625 C 14.03125 103.945312 14.015625 103.261719 14.015625 102.605469 L 14.015625 99.445312 C 16.527344 102.503906 18.460938 104.796875 19.828125 106.328125 C 20.199219 106.378906 20.5625 106.433594 20.917969 106.492188 L 21 106.433594 C 20.945312 105.832031 20.914062 104.125 20.914062 101.308594 C 20.914062 100.949219 20.925781 100.390625 20.945312 99.636719 C 20.960938 98.882812 21.003906 98.398438 21.066406 98.183594 C 21.078125 98.144531 21.101562 98.109375 21.136719 98.089844 C 21.234375 98.027344 21.539062 97.988281 22.054688 97.976562 L 22.054688 97.445312 C 21.394531 97.476562 20.855469 97.492188 20.4375 97.492188 C 20.007812 97.492188 19.53125 97.476562 19.015625 97.445312 L 19.015625 97.976562 C 19.578125 97.984375 19.910156 98.027344 20.007812 98.101562 C 20.066406 98.148438 20.105469 98.25 20.121094 98.40625 C 20.171875 98.808594 20.199219 100.148438 20.199219 102.429688 L 20.199219 103.894531 C 19.609375 103.289062 18.867188 102.453125 17.976562 101.382812 C 16.738281 99.894531 15.683594 98.582031 14.8125 97.445312 L 14.226562 97.46875 L 13.304688 97.492188 C 13.050781 97.492188 12.65625 97.476562 12.117188 97.445312 L 12.117188 97.976562 C 12.566406 98.003906 12.835938 98.03125 12.929688 98.058594 C 13.023438 98.085938 13.089844 98.117188 13.128906 98.164062 C 13.167969 98.207031 13.199219 98.277344 13.222656 98.371094 C 13.242188 98.464844 13.253906 98.664062 13.257812 98.972656 L 13.289062 100.820312 L 13.289062 102.859375 C 13.289062 103.421875 13.28125 103.882812 13.265625 104.230469 C 13.230469 104.851562 13.199219 105.238281 13.171875 105.402344 C 13.152344 105.519531 13.125 105.597656 13.09375 105.636719 C 13.0625 105.671875 13.023438 105.703125 12.976562 105.71875 C 12.90625 105.738281 12.617188 105.761719 12.117188 105.789062 Z M 0.832031 98.058594 C 0.917969 98.121094 0.972656 98.175781 0.992188 98.222656 C 1.03125 98.308594 1.058594 98.441406 1.070312 98.628906 C 1.089844 99.101562 1.101562 99.636719 1.101562 100.226562 L 1.101562 101.839844 L 1.09375 103.058594 C 1.09375 103.730469 1.105469 104.140625 1.125 104.292969 C 1.15625 104.539062 1.238281 104.792969 1.375 105.058594 C 1.511719 105.320312 1.707031 105.5625 1.964844 105.773438 C 2.222656 105.988281 2.554688 106.160156 2.960938 106.285156 C 3.519531 106.460938 4.121094 106.546875 4.765625 106.546875 C 5.316406 106.546875 5.800781 106.488281 6.21875 106.367188 C 6.640625 106.25 7 106.074219 7.304688 105.839844 C 7.609375 105.609375 7.847656 105.347656 8.011719 105.058594 C 8.179688 104.773438 8.292969 104.425781 8.347656 104.019531 C 8.402344 103.613281 8.429688 103.21875 8.429688 102.839844 L 8.429688 101.347656 C 8.429688 100.90625 8.445312 100.304688 8.472656 99.542969 C 8.5 98.78125 8.53125 98.351562 8.5625 98.257812 C 8.59375 98.160156 8.636719 98.097656 8.6875 98.0625 C 8.789062 98 9.035156 97.96875 9.429688 97.96875 L 9.429688 97.445312 L 8.019531 97.484375 C 7.945312 97.488281 7.886719 97.492188 7.847656 97.492188 C 7.707031 97.492188 7.25 97.476562 6.484375 97.445312 L 6.484375 97.96875 C 6.953125 97.980469 7.257812 98.023438 7.398438 98.09375 C 7.464844 98.128906 7.515625 98.179688 7.542969 98.246094 C 7.589844 98.355469 7.621094 98.679688 7.632812 99.214844 C 7.636719 99.460938 7.640625 100.140625 7.640625 101.257812 L 7.640625 102.554688 C 7.640625 103.457031 7.566406 104.066406 7.417969 104.390625 C 7.269531 104.710938 7.019531 104.972656 6.671875 105.171875 C 6.324219 105.375 5.855469 105.476562 5.265625 105.476562 C 4.753906 105.476562 4.332031 105.402344 4 105.25 C 3.667969 105.101562 3.417969 104.902344 3.257812 104.660156 C 3.097656 104.414062 3 104.09375 2.960938 103.695312 C 2.945312 103.515625 2.933594 103.035156 2.933594 102.261719 L 2.929688 101.519531 L 2.929688 100.042969 C 2.929688 99.152344 2.957031 98.574219 3.015625 98.3125 C 3.035156 98.203125 3.078125 98.128906 3.144531 98.089844 C 3.265625 98.007812 3.558594 97.96875 4.015625 97.96875 L 4.015625 97.445312 L 3.78125 97.453125 L 2.921875 97.476562 L 2.066406 97.492188 L 0 97.445312 L 0 97.96875 L 0.832031 98.058594 "/>
<g clip-path="url(#clip2)" clip-rule="nonzero">
<path style=" stroke:none;fill-rule:nonzero;fill:rgb(10.749817%,30.847168%,61.210632%);fill-opacity:1;" d="M 94.328125 74.648438 L 94.328125 51.859375 L 115.324219 51.859375 L 115.324219 36.832031 L 94.328125 36.832031 L 94.328125 15.546875 L 117.386719 15.546875 L 117.386719 23.804688 L 132.59375 23.804688 L 132.59375 0.644531 L 71.699219 0.644531 L 71.699219 15.546875 L 77.402344 15.546875 L 77.402344 74.648438 L 71.71875 74.648438 L 71.71875 89.671875 L 99.828125 89.671875 L 99.828125 74.648438 L 94.328125 74.648438 "/>
</g>
<g clip-path="url(#clip3)" clip-rule="nonzero">
<path style=" stroke:none;fill-rule:nonzero;fill:rgb(10.749817%,30.847168%,61.210632%);fill-opacity:1;" d="M 64.585938 56.027344 L 64.585938 15.542969 L 70.210938 15.542969 L 70.210938 0.644531 L 42.046875 0.644531 L 42.046875 15.542969 L 47.539062 15.542969 L 47.539062 50.992188 C 47.539062 65.851562 45.820312 72.992188 35.152344 72.992188 C 24.480469 72.992188 22.765625 65.851562 22.765625 50.992188 L 22.765625 15.542969 L 28.214844 15.542969 L 28.214844 0.644531 L 0.0078125 0.644531 L 0.0078125 15.542969 L 5.59375 15.542969 L 5.59375 56.027344 C 5.59375 64.867188 5.59375 72.113281 9.761719 78.621094 C 14.421875 85.988281 22.886719 90.671875 35.152344 90.671875 C 56.859375 90.671875 64.585938 79.359375 64.585938 56.027344 "/>
</g>
</g>
</svg>
