<svg xmlns="http://www.w3.org/2000/svg" viewBox="0 0 132.48 132.6"><defs><style>.cls-1{fill:#1e3e6d;}.cls-1,.cls-2{fill-rule:evenodd;}.cls-2{fill:#1d3c6a;}.cls-3{fill:none;stroke:#fff;stroke-linecap:round;stroke-linejoin:round;stroke-width:0.71px;}</style></defs><title>Asset 7</title><g id="Layer_2" data-name="Layer 2"><g id="Layer_1-2" data-name="Layer 1"><path class="cls-1" d="M131.59,77.87l.89-8.44-10.82-4.07a44.34,44.34,0,0,0-.59-7.16l10.22-5.86L129,44.2l-11.81.3a46,46,0,0,0-3.57-7l6.94-9.34-5.26-6.56-10.62,4.77a59.62,59.62,0,0,0-5.35-4.67l3-11.22L94.87,6.46l-8,8.34a48.33,48.33,0,0,0-7.34-2.38L77.8.89,69.37,0,65.3,10.83a44.21,44.21,0,0,0-7.15.59L52.3,1.19,44.16,3.48l.3,11.82a45.59,45.59,0,0,0-7,3.57l-9.33-7-6.55,5.26L26.4,27.81a47.11,47.11,0,0,0-4.57,5.36L10.52,30.29,6.45,37.64l8.34,8a46.25,46.25,0,0,0-2.39,7.45L.89,54.73,0,63.17l10.82,4.17a59.65,59.65,0,0,0,.59,7.06L1.19,80.35,3.47,88.4l11.81-.3a49.88,49.88,0,0,0,3.57,7l-6.94,9.34L17.17,111l10.62-4.67a58.58,58.58,0,0,0,5.35,4.57l-2.87,11.22,7.34,4.07,8-8.34a46.11,46.11,0,0,0,7.44,2.38l1.59,11.53,8.43.89,4.17-10.83a43.93,43.93,0,0,0,7-.59l5.85,10.23L88.32,129,88,117.3a41.38,41.38,0,0,0,7-3.57l9.33,7,6.55-5.26-4.67-10.63a60.09,60.09,0,0,0,4.57-5.36l11.21,3L126.13,95l-8.44-8a48.49,48.49,0,0,0,2.39-7.35l11.51-1.69ZM77,104.29A39.43,39.43,0,1,1,104.2,55.62,39.47,39.47,0,0,1,77,104.29Z"/><path class="cls-2" d="M65.91,25.51A40.2,40.2,0,0,0,25.45,66c0,22.55,17.91,41.12,40.46,41.12A41.33,41.33,0,0,0,107,66c0-22.55-18.57-40.46-41.12-40.46Z"/><path class="cls-3" d="M104.35,88.08l.94-.54"/><path class="cls-3" d="M97.28,89.44l.86-.5S97.5,90,97.5,90s6.33-3.68,6.35-3.66-6.81,4.86-6.79,4.9,7.09-4.18,7.13-4.12-6.58,4.77-6.57,4.78,6.8-4,6.82-3.94-6.61,4.65-6.58,4.71S104,89.19,104,89.19s-5.63,3.87-5.62,3.89S103.69,90,103.7,90s-7.06,4.66-7,4.71,7-4.06,7-4-7.35,4.81-7.31,4.88,7-4.07,7-4.06S96.79,95.94,96.81,96s6.09-3.54,6.1-3.52-5.54,4.27-5.52,4.3,5.86-3.38,5.86-3.38-6.44,4.83-6.44,4.84,5.25-3.07,5.26-3-5.15,3.61-5.14,3.63,4.46-2.61,4.47-2.58-3.59,3-3.57,3,3.29-1.93,3.3-1.91-2.67,2.58-2.67,2.59l2.32-1.34"/><path class="cls-3" d="M101.85,86.09l1.36-.78s-.84,1.07-.84,1.08,1.49-.88,1.5-.87"/><path class="cls-3" d="M103.28,84.38l.26-.15s-1,1.41-1,1.42l1.15-.67"/><path class="cls-3" d="M76.66,109.76s2.41-1.41,2.41-1.39"/><path class="cls-3" d="M91.84,77.39,92,77.3"/><path class="cls-3" d="M92.61,53.1l.2-.12"/><path class="cls-3" d="M70.14,33.26l1.23-.71s-1.74,1.93-1.73,1.93S72.19,33,72.2,33s-2.64,2.13-2.63,2.14,3.21-1.88,3.21-1.86"/><path class="cls-3" d="M31.35,39s.5-.3.51-.29-.73,1.2-.73,1.2S51.92,27.83,52,27.87,29.14,41.45,29.21,41.57,54,27.23,54,27.27s-25.16,15.38-25,15.58S55.2,27.63,55.23,27.68c.12.21-27.17,16.24-27.08,16.39s30-17.58,30.11-17.38S27.47,45.07,27.59,45.28s30.61-18,30.75-17.75S26.55,46.75,26.62,46.88,58.25,28.29,58.39,28.54c0,0-30.72,18.26-30.69,18.32s31.67-18.3,31.68-18.29c.13.23-32.07,18.87-31.9,19.16S59.78,28.83,59.89,29,27.5,48.5,27.53,48.57c.14.23,31.26-18.16,31.31-18.08S27.21,49.12,27.38,49.4,58.66,31.26,58.69,31.32,27.52,50.16,27.55,50.22C27.73,50.53,59.11,32,59.12,32S28,50.55,28,50.58,59.8,32.18,59.81,32.2,27.93,51.5,28,51.55s32.24-19,32.41-18.71c0,.07-33.22,19.68-33.15,19.79S62,32.12,62.16,32.46c.07.12-35,20.67-34.79,21S63.09,32.72,63.15,32.82,26.56,54.13,26.75,54.46c.06.1,37.1-21.61,37.19-21.46S27.08,55.18,27.1,55.21c.2.35,37.25-21.58,37.28-21.52s-37.16,21.86-37.1,22,37-21.45,37.06-21.39S27.22,55.77,27.43,56.14c0,.07,36.86-21.38,36.9-21.31.14.25-37.13,21.51-36.92,21.87S65.24,34.83,65.25,34.85,27.83,57.42,27.83,57.42c.19.32,39.18-22.9,39.3-22.69S28.37,57.53,28.56,57.86C28.61,58,67.92,35,68,35.1s-38.36,22.77-38.23,23S68.48,35.5,68.58,35.68,30,58.49,30.22,58.8,74.14,33,74.33,33.34,30.55,59,30.73,59.31c.05.09,44.62-26.32,44.86-25.9.1.18-45.05,26.1-44.81,26.52S75.43,34,75.5,34.12c.16.28-44.88,26.05-44.73,26.32,0,0,45.83-26.87,46-26.56,0,0-45.84,26.75-45.7,27,.27.45,46.14-26.84,46.23-26.69.17.31-46.13,27.35-46,27.59S77.69,34.53,77.9,34.89c0,0-45.64,26.64-45.43,27S79.39,34.23,79.64,34.65c0,0-46.35,27.46-46.29,27.57.24.41,48.29-28.38,48.51-28,.08.15-48.54,28.3-48.43,28.49S83.21,33.94,83.22,34c.25.44-49.43,28.83-49.3,29.05.26.45,49.06-28.91,49.31-28.48,0,.07-49,28.53-48.89,28.77S83.23,34.57,83.45,35,34.14,63.71,34.32,64s50.61-29.89,50.9-29.39S34.28,64,34.54,64.47,86,34.17,86.23,34.62c0,.09-50.41,29.72-50.26,30,.27.48,50.17-29.54,50.42-29.11.1.17-50.84,29.34-50.58,29.8.15.26,50.2-29.12,50.26-29,.21.38-48.73,29-48.72,29.06.23.4,49.21-29,49.47-28.56s-49,28.73-48.95,28.89c.19.32,48.86-28.41,48.95-28.26.2.35-46.67,27-46.42,27.41.1.18,45.66-26.59,45.76-26.42.24.42-43.52,26-43.51,26.06.22.38,42.42-25.06,42.67-24.64.15.27-41.65,24.74-41.51,25L85.92,40.46S44.93,64.85,45,65c.18.31,40.54-23.72,40.68-23.48S48.82,63.55,48.89,63.65,86,42.09,86.09,42.18,50.7,63,50.78,63.19,86.33,42.27,86.5,42.57,51.16,63.67,51.32,63.94c0,0,35.86-20.85,35.92-20.74S52,64,52.06,64.22,87.51,43.4,87.67,43.66,52.91,64.32,53,64.54,87.27,44.33,87.47,44.67c.07.12-35.19,20.87-35.06,21.1S88.24,44.68,88.41,45c0,0-34.61,20.77-34.52,20.93S88.67,45.51,88.81,45.75s-34,20.08-33.92,20.16c.16.28,33.85-19.85,34-19.62S56.62,65.69,56.77,65.93,88.83,47.15,89,47.35s-31.33,18.87-31.24,19c0,0,31.72-18.54,31.82-18.37S58.3,66.78,58.35,66.86,89,49,89,49.15,57.18,68.32,57.3,68.53s33-19.39,33.15-19.13S57.48,69,57.53,69.08s32.9-19,32.9-19c.11.18-32.86,19.46-32.81,19.55.18.32,33.71-19.48,33.71-19.46.2.33-34.48,20.55-34.41,20.68S91,50.77,91.2,51.05,57.13,71.67,57.13,71.67s34.54-20,34.59-20S56.86,72.41,56.89,72.46,92.27,51.79,92.37,52c0,0-34.49,20.82-34.39,21s33.93-19.7,34-19.62-33.52,20-33.33,20.38c0,0,33.83-19.74,33.92-19.59S59,74.1,59.09,74.27c.2.35,35.22-20.47,35.28-20.37.16.28-34.8,20.72-34.61,21.05,0,.07,34.81-20.37,34.93-20.16S60.46,75.05,60.48,75.09s33.87-20,34.07-19.67S60.28,75.75,60.4,76,95.82,55.34,95.9,55.47C96.1,55.82,61,76.18,61,76.21c.18.3,35.18-20.47,35.25-20.35.16.29-35.08,21-34.94,21.22s35-20.65,35.2-20.32c.06.09-35.59,21.27-35.57,21.3.13.23,34.62-20.29,34.75-20.07S61,78.53,61.05,78.62,96.49,57.7,96.69,58c.09.16-35.23,21.39-35.21,21.43s36-20.95,36.05-20.82S62.21,79.43,62.29,79.57c.2.34,35.38-20.75,35.52-20.51S62.48,80.15,62.48,80.16s37.11-21.8,37.27-21.52c0,0-37.67,22.69-37.63,22.76s40-23.66,40.27-23.25c.06.1-40.3,23.6-40.19,23.79S103.34,58,103.41,58.15,62.14,82.49,62.21,82.61,105,57.5,105.15,57.81,62.84,83,63,83.24s42.65-25.09,42.85-24.74-44.12,25.9-44,26,43.68-25.26,43.7-25.23c.23.39-44.53,26.24-44.36,26.54,0,.09,43.16-25.17,43.26-25S60.19,86.56,60.41,87s42.87-25.2,43.07-24.86S60.83,87,61,87.31s42.75-24.69,42.75-24.68S60.22,87.93,60.37,88.19,103,63.47,103,63.56,59.68,89.65,59.7,89.67s42.45-24.91,42.62-24.61S59.9,90,60.09,90.32s41-23.74,41.05-23.7S59.65,90.57,59.87,90.94c0,0,38.4-22.59,38.58-22.27.08.14-38.49,22.52-38.38,22.71S96,70.47,96.06,70.6,60.55,91.67,60.7,91.93s33.83-19.8,33.94-19.59-34,20.29-34,20.35C60.83,93,92.94,73.94,93,74s-31.41,19-31.31,19.21S91.4,75.89,91.48,76,62.18,93.5,62.2,93.53,92.17,76,92.26,76.18s-30,18-29.85,18.14S91.32,77.57,91.35,77.61c.15.27-29.56,17.49-29.49,17.61S92,77.53,92.13,77.75,62.69,95,62.86,95.31c0,.06,29.57-17.44,29.73-17.16s-29.83,18-29.82,18S91.58,79.36,91.66,79.51,63.44,96.43,63.57,96.65,91.88,80.05,92,80.24c0,0-28.34,16.94-28.3,17C63.83,97.5,92,80.78,92,80.9S62.94,98.39,63,98.4,91.7,81.51,91.83,81.72,63.4,99,63.47,99.08,93,81.8,93.13,82,63.8,99.63,64,99.91s29.32-17,29.35-17c.13.22-29.26,17.76-29.25,17.77s28.87-17,29-16.76c.06.1-29.23,17.4-29.07,17.69C64,101.69,92.79,85,92.8,85S64,102.43,64,102.44c.1.16,29.32-17.17,29.43-17s-28.93,17.63-28.93,17.63c.14.25,29.17-16.87,29.18-16.85S66,102.86,66.1,103.12c0,0,27.81-16.19,27.87-16.08s-27.88,16.64-27.79,16.78,27.53-16,27.59-15.93S65.93,104.46,66,104.58s22.11-13,22.19-12.81-21.55,12.93-21.48,13S86,93.42,86.1,93.61c0,0-19.71,12.08-19.71,12.08S86.81,93.78,86.86,93.87s-20.46,12.45-20.4,12.56,20-11.68,20.05-11.57S66.81,106.65,66.9,106.8,87.13,95,87.2,95.08,67.88,106.61,68,106.77,87.4,95.36,87.48,95.51,67.86,107.3,67.91,107.37s19.4-11.29,19.44-11.22-20.06,12.24-20,12.39S87.75,96.61,87.82,96.73s-20.69,12.79-20.59,13S87.54,97.94,87.56,98,68,110.05,68.06,110.14s16.36-9.56,16.41-9.48S67.93,110.8,68,110.84s16.55-9.69,16.61-9.59-14.82,9.32-14.77,9.39,14.08-8.22,14.12-8.15-13.45,8.26-13.4,8.34,13.56-7.91,13.6-7.85-11.56,7.12-11.53,7.17S83.13,104,83.18,104s-9.26,6-9.24,6,7.81-4.51,7.82-4.51-7.21,4.71-7.16,4.78,5.9-3.49,5.93-3.43S76,110.07,76,110.1l.67-.38"/><path class="cls-3" d="M36.8,32.23s1-.6,1-.59-2.44,2-2.43,2,7-4.07,7-4-6.74,4.35-6.71,4.4,7.93-4.67,8-4.6-8.53,5.9-8.52,5.92,12.38-7.25,12.42-7.18-12.11,7.85-12.06,7.93,14.67-8.64,14.74-8.51-15.64,9.43-15.57,9.54S51,27.6,51,27.7"/><path class="cls-3" d="M39.47,29.2,39.9,29s-.49.78-.48.79l1.12-.65S38.65,31,38.67,31,41,29.62,41,29.63"/></g></g></svg>